<?xml version="1.0" encoding="UTF-8"?>
<svg xmlns:xlink="http://www.w3.org/1999/xlink" width="100px" height="52px" viewBox="0 0 100 52" version="1.1"
     xmlns="http://www.w3.org/2000/svg">
    <!-- Generator: Sketch 51.3 (57544) - http://www.bohemiancoding.com/sketch -->
    <title>Top/Glowing Bulb 02</title>
    <desc>Created with Sketch.</desc>
    <defs>
        <path d="M50,13 L50,13 C61.045695,13 70,21.954305 70,33 L70,44 L30,44 L30,33 C30,21.954305 38.954305,13 50,13 Z"
              id="path-1"></path>
        <filter x="-30.0%" y="-38.7%" width="160.0%" height="177.4%" filterUnits="objectBoundingBox" id="filter-2">
            <feOffset dx="0" dy="0" in="SourceAlpha" result="shadowOffsetOuter1"></feOffset>
            <feGaussianBlur stdDeviation="4" in="shadowOffsetOuter1" result="shadowBlurOuter1"></feGaussianBlur>
            <feComposite in="shadowBlurOuter1" in2="SourceAlpha" operator="out" result="shadowBlurOuter1"></feComposite>
            <feColorMatrix values="0 0 0 0 1   0 0 0 0 1   0 0 0 0 1  0 0 0 0.5 0" type="matrix"
                           in="shadowBlurOuter1"></feColorMatrix>
        </filter>
        <filter x="-25.0%" y="-32.3%" width="150.0%" height="164.5%" filterUnits="objectBoundingBox" id="filter-3">
            <feGaussianBlur stdDeviation="2" in="SourceAlpha" result="shadowBlurInner1"></feGaussianBlur>
            <feOffset dx="0" dy="0" in="shadowBlurInner1" result="shadowOffsetInner1"></feOffset>
            <feComposite in="shadowOffsetInner1" in2="SourceAlpha" operator="arithmetic" k2="-1" k3="1"
                         result="shadowInnerInner1"></feComposite>
            <feColorMatrix values="0 0 0 0 1   0 0 0 0 1   0 0 0 0 1  0 0 0 0.5 0" type="matrix"
                           in="shadowInnerInner1"></feColorMatrix>
        </filter>
        <rect id="path-4" x="20" y="36" width="60" height="16" rx="1"></rect>
    </defs>
    <g id="Top/Glowing-Bulb-02" stroke="none" stroke-width="1" fill="none" fill-rule="evenodd">
        <g id="Bulb">
            <use fill="black" fill-opacity="1" filter="url(#filter-2)" xlink:href="#path-1"></use>
            <use fill-opacity="0.300000012" fill="#FFFFFF" fill-rule="evenodd" xlink:href="#path-1"></use>
            <use fill="black" fill-opacity="1" filter="url(#filter-3)" xlink:href="#path-1"></use>
        </g>
        <path d="M50,36 C52.209139,36 54,35.0279942 54,31.7142857 C54,28.4005772 52.209139,24 50,24 C47.790861,24 46,28.4005772 46,31.7142857 C46,35.0279942 47.790861,36 50,36 Z"
              id="Light" fill-opacity="0.6" fill="#FFFFFF"></path>
        <path d="M50,15.5 C54.9315485,15.5 59.3660426,17.6281427 62.4352098,21.0161556 M64.8733745,24.5107242 C65.5630474,25.8293043 66.0825179,27.2509729 66.4026217,28.7465657"
              id="Reflection" stroke="#FFFFFF" stroke-width="2" stroke-linecap="round"></path>
        <mask id="mask-5" fill="white">
            <use xlink:href="#path-4"></use>
        </mask>
        <use id="Band" fill="#48494B" xlink:href="#path-4"></use>
    </g>
</svg>